PathFileType	4	(X/Y/Z)	C:\Users\Basilio\Documents\Thesis Gigler\squatting_fais\c3dfiles\058\SLS_front_pre2\markers_experimental.trc
DataRate	CameraRate	NumFrames	NumMarkers	Units	OrigDataRate	OrigDataStartFrame	OrigNumFrames
200.000000	200.000000	4	61	mm	200.000000	469	1252
Frame#	Time	FHD			LBHD			RBHD			C7			T10			CLAV			LSHO			LUUPA			LMUPA			LDUPA			LLEP			LMEP			LUL			LRFIN			RSHO			RUPA1			RMUPA			RDUPA			RLEP			RMEP			RRAD			RUL			RUFIN			LASI			RASI			USACR			LSACR			RSACR			LTHI1			LTHI2			LTHI3			LTHI4			LLFC			LMFC			LTIB1			LTIB2			LTIB3			LTIB4			LLMAL			LMMAL			LHEE			LMT1			LMT2			LMT5			RTHI			RTHI2			RTHI3			RTHI4			RLFC			RMFC			RTIB2			RTIB3			RTIB4			RLMAL			RMMAL			RHEE			RMT1			RMT2			RMT5			RTIB1			LRAD			
		X1	Y1	Z1	X2	Y2	Z2	X3	Y3	Z3	X4	Y4	Z4	X5	Y5	Z5	X6	Y6	Z6	X7	Y7	Z7	X8	Y8	Z8	X9	Y9	Z9	X10	Y10	Z10	X11	Y11	Z11	X12	Y12	Z12	X13	Y13	Z13	X14	Y14	Z14	X15	Y15	Z15	X16	Y16	Z16	X17	Y17	Z17	X18	Y18	Z18	X19	Y19	Z19	X20	Y20	Z20	X21	Y21	Z21	X22	Y22	Z22	X23	Y23	Z23	X24	Y24	Z24	X25	Y25	Z25	X26	Y26	Z26	X27	Y27	Z27	X28	Y28	Z28	X29	Y29	Z29	X30	Y30	Z30	X31	Y31	Z31	X32	Y32	Z32	X33	Y33	Z33	X34	Y34	Z34	X35	Y35	Z35	X36	Y36	Z36	X37	Y37	Z37	X38	Y38	Z38	X39	Y39	Z39	X40	Y40	Z40	X41	Y41	Z41	X42	Y42	Z42	X43	Y43	Z43	X44	Y44	Z44	X45	Y45	Z45	X46	Y46	Z46	X47	Y47	Z47	X48	Y48	Z48	X49	Y49	Z49	X50	Y50	Z50	X51	Y51	Z51	X52	Y52	Z52	X53	Y53	Z53	X54	Y54	Z54	X55	Y55	Z55	X56	Y56	Z56	X57	Y57	Z57	X58	Y58	Z58	X59	Y59	Z59	X60	Y60	Z60	X61	Y61	Z61	

470	2.345	-328.2692871093751	1794.862670898438	-620.3186645507814	-478.6994934082032	1737.125122070313	-700.0907592773439	-310.0785522460938	1802.350952148438	-761.6643066406251	-484.2728576660157	1578.220458984375	-713.5356445312501	-484.6116943359376	1272.261596679688	-701.6660156250001	-325.2602844238282	1539.229614257813	-694.6464843750001	-335.1253356933594	1588.709228515625	-850.378845214844	-187.7309112548828	1510.1982421875	-969.929138183594	-159.4849853515625	1547.1611328125	-949.249206542969	-117.7437133789063	1510.067016601563	-970.7987060546877	-40.22014617919923	1511.396240234375	-962.1035766601565	-36.13364791870118	1454.773681640625	-929.793151855469	228.6587524414063	1546.719482421875	-921.6826171875002	320.8561401367188	1544.405029296875	-839.2498168945315	-359.8616333007813	1587.613403320313	-541.1906127929689	-208.9280548095704	1494.644287109375	-425.4060668945314	-183.2642059326172	1532.752685546875	-446.2805480957032	-139.6236419677735	1501.281005859375	-422.1221618652345	-71.86014556884767	1491.178466796875	-425.9662475585939	-62.05504608154298	1433.862670898438	-476.7567749023439	200.1505737304688	1523.601928710938	-506.196746826172	197.8198242187501	1535.087646484375	-425.2140197753907	292.8849487304688	1545.220092773438	-490.611541748047	-307.2916259765626	1095.924926757813	-853.1914672851565	-286.9905700683594	1070.044921875	-614.2805786132814	-493.4912719726564	1147.460571289063	-701.4587402343751	-502.3824462890626	1117.847412109375	-731.1578369140626	-491.2532043457032	1112.845458984375	-674.6788940429689	-242.6134033203126	852.4274902343752	-933.0159912109377	-182.341552734375	794.5623779296877	-923.6394042968752	-146.0940704345703	809.737731933594	-891.251159667969	-183.854721069336	734.4714355468751	-922.5202636718752	-133.7992095947266	648.3580932617189	-915.5379028320315	-132.997787475586	631.2530517578126	-786.7296142578127	-26.25004386901856	551.2432861328126	-872.8809814453127	-43.14837646484376	502.0541076660157	-939.865173339844	-9.670838356018068	509.594207763672	-910.2961425781252	29.29578590393067	437.1961975097657	-889.6793212890627	76.09104156494142	239.767318725586	-925.1105957031252	81.28830718994142	250.2957916259766	-833.089782714844	28.67095375061036	176.8477325439453	-883.9732055664065	233.0473175048829	246.4195251464844	-837.8018188476565	242.4991912841797	258.0095825195313	-882.3303833007815	211.5369873046876	227.1976013183594	-943.3941650390627	-359.1209106445313	844.136169433594	-557.5623168945314	-313.1976623535157	795.8327636718752	-561.2739868164064	-281.1385192871094	801.466735839844	-564.1923828125001	-328.6626892089844	715.5063476562501	-582.4780273437501	-298.9831848144532	542.3890991210939	-614.1923828125001	-265.4946594238282	544.4097290039064	-746.2274169921876	-315.4873962402344	268.0798950195313	-657.1599121093751	-281.9494934082032	260.2832641601563	-690.9575195312501	-299.7017822265626	220.2328643798829	-729.0881958007814	-370.2167053222657	118.2149200439453	-694.3832397460939	-340.5970458984376	142.9492340087891	-781.851257324219	-437.791229248047	102.1499481201172	-757.5871582031251	-228.5269927978516	58.514949798584	-770.747985839844	-221.6028900146485	59.86190032958986	-718.4618530273439	-271.2238159179688	29.11188316345216	-666.3552856445314	-270.7473754882813	346.4131469726563	-718.1770629882814	221.8294982910157	1520.539184570313	-844.5338134765627	
471	2.35	-328.1598205566407	1794.399780273438	-620.2721557617189	-478.5818786621095	1736.38232421875	-700.1654663085939	-309.6867980957032	1801.669799804688	-761.6701049804689	-484.1231384277345	1577.798095703125	-713.5543823242189	-484.9655151367189	1271.57177734375	-701.5336303710939	-325.1553955078126	1538.434692382813	-694.7131347656251	-334.7527160644532	1588.16650390625	-850.4967041015627	-187.4563903808594	1509.714477539063	-969.9702148437502	-159.294662475586	1546.642700195313	-949.1669921875002	-117.4445877075196	1509.56640625	-970.8740844726565	-39.88803482055665	1510.976684570313	-962.1616821289065	-35.72186660766602	1454.008911132813	-929.9136962890627	228.8629302978516	1546.34716796875	-921.7001953125002	321.1148071289063	1544.036499023438	-839.339782714844	-359.8511657714844	1586.836669921875	-541.2075805664064	-209.0659942626954	1493.59375	-425.0841369628907	-183.2759094238282	1532.06396484375	-446.2352905273439	-139.5604248046875	1500.630737304688	-422.4607849121095	-71.88713836669923	1490.599487304688	-425.7097778320314	-61.88024139404298	1433.407836914063	-476.7303161621095	199.6561584472657	1522.8798828125	-506.1819763183595	197.8794250488282	1534.640747070313	-425.3092346191407	292.9880676269532	1544.77099609375	-490.6415100097657	-307.6782836914063	1095.292236328125	-853.2618408203127	-287.6718444824219	1069.302001953125	-614.3038940429689	-493.6776428222657	1146.838500976563	-701.5981445312501	-502.8135681152345	1117.151977539063	-731.0955200195314	-491.5967407226564	1112.382934570313	-674.6861572265626	-242.5931243896485	852.0533447265627	-933.0071411132815	-182.408447265625	794.2058715820315	-923.6370239257815	-146.0045928955078	809.3513183593752	-891.2558593750002	-183.9079895019532	733.9920654296876	-922.444274902344	-133.7758941650391	647.9414672851564	-915.4888916015627	-132.9473724365235	630.7573242187501	-786.088073730469	-25.82007789611817	550.8588867187501	-872.8481445312502	-42.80180358886719	501.839813232422	-939.791198730469	-9.333071708679201	509.4217529296876	-910.3161621093752	29.9271354675293	437.0320129394532	-889.6143798828127	76.70168304443361	239.6023712158204	-924.9771118164065	81.75582885742189	250.1348266601563	-833.0166015625002	29.02197837829591	176.7969512939453	-883.797546386719	233.6666412353516	246.7135620117188	-837.5874633789065	242.8903350830079	258.1622619628907	-882.0393066406252	212.1300659179688	227.2831115722657	-943.1647949218752	-358.7011413574219	843.432312011719	-557.5931396484376	-312.7110900878907	795.754089355469	-560.9790039062501	-280.3457031250001	800.6538085937502	-564.3346557617189	-328.0724487304688	715.1296997070314	-582.2918090820314	-297.8666992187501	541.9063110351564	-614.0044555664064	-264.2560729980469	544.0538940429689	-746.0071411132814	-314.9777526855469	267.8662719726563	-657.1224975585939	-281.7254638671876	259.8633728027344	-690.9253540039064	-299.2849731445313	220.3165740966797	-728.9447631835939	-370.1276245117188	118.1566162109375	-694.3969726562501	-340.5628662109376	142.919906616211	-781.8924560546877	-437.7666320800782	102.1512298583985	-757.5892944335939	-228.505355834961	58.52073287963869	-770.7334594726565	-221.5804138183594	59.91382598876955	-718.4698486328126	-271.2024841308594	29.15875244140626	-666.3969116210939	-270.1153564453126	346.0437927246094	-718.1162719726564	222.1029357910157	1520.06396484375	-844.4887695312502	
472	2.355	-327.9841308593751	1793.783203125	-620.2415771484376	-478.1808471679689	1735.617919921875	-700.4463500976564	-309.4724121093751	1801.148315429688	-761.6461791992189	-483.873992919922	1577.255615234375	-713.7191772460939	-485.282196044922	1270.826782226563	-701.5859985351564	-325.0147399902344	1537.646362304688	-694.7698364257814	-334.2124633789063	1587.514892578125	-850.5389404296877	-187.1839904785157	1509.1650390625	-970.0061645507815	-159.2167053222657	1545.964965820313	-949.0513305664065	-117.131950378418	1509.136840820313	-970.869323730469	-39.71279525756837	1510.541625976563	-961.9544067382815	-35.30209350585938	1453.645629882813	-930.1840820312502	229.0797119140626	1546.001220703125	-921.678405761719	322.2575378417969	1543.95458984375	-838.9943847656252	-359.6582031250001	1586.289184570313	-541.1469726562501	-208.4532623291016	1493.251342773438	-425.2888488769532	-183.0336456298828	1531.581665039063	-446.3365478515626	-139.2903442382813	1500.096313476563	-422.459197998047	-71.48865509033205	1490.12939453125	-425.9051208496095	-61.69921112060548	1432.798583984375	-476.6494445800782	199.6207885742188	1522.259033203125	-506.2675170898439	198.0789489746094	1534.238647460938	-425.444305419922	292.5527648925782	1543.763061523438	-491.2547607421876	-308.0621948242188	1094.65283203125	-853.1713867187502	-287.9157104492188	1068.901000976563	-614.3372802734376	-494.0745239257814	1146.042846679688	-701.5933227539064	-503.3513793945314	1116.438232421875	-731.0808715820314	-491.9908447265626	1111.62939453125	-674.6227416992189	-242.6801300048829	851.584167480469	-932.9942626953127	-182.5171813964844	793.742614746094	-923.5571289062502	-146.0970153808594	808.940612792969	-891.220153808594	-183.7762908935547	733.7459716796876	-921.8220214843752	-133.8253326416016	647.5445556640626	-915.337829589844	-132.6939849853516	630.3549194335939	-786.0717773437502	-25.76669502258301	550.6793212890626	-872.7943115234377	-42.62434768676759	501.6376037597657	-939.710144042969	-8.956698417663576	509.1804504394532	-910.3171386718752	30.11775398254395	436.8313598632814	-889.496032714844	77.39021301269533	239.4786071777344	-924.8292236328127	82.78606414794923	250.0246124267579	-832.913513183594	30.40873527526856	176.4072418212891	-883.902038574219	234.4830017089844	247.0450286865235	-837.4895019531252	243.7076873779297	258.5205688476563	-881.907409667969	212.9928588867188	227.4650421142579	-942.9765625000002	-358.3848571777344	842.5735473632815	-557.4881591796876	-312.2905578613282	795.0390625000002	-560.7802734375001	-279.7305908203126	800.192565917969	-564.3087158203126	-327.3028869628907	714.5247802734376	-582.1143798828126	-296.6767272949219	541.3497314453126	-613.8007202148439	-263.2693481445313	543.7553100585939	-745.8964233398439	-314.6663208007813	267.8460693359376	-657.0861206054689	-280.9499206542969	259.6396789550782	-690.8353881835939	-298.9073791503907	220.2981109619141	-728.9732666015626	-370.0436706542969	118.1292266845703	-694.3739624023439	-340.5499572753907	142.872299194336	-781.8830566406252	-437.7528686523439	102.1474914550782	-757.5806274414064	-228.5008087158204	58.49428939819337	-770.7344970703127	-221.5733642578126	59.8417434692383	-718.4302368164064	-271.2188415527344	29.1264991760254	-666.3580322265626	-269.2120971679688	345.8020935058594	-718.1264648437501	222.2313995361329	1519.652954101563	-844.6507568359377	
473	2.36	-327.7195129394532	1793.100463867188	-620.3617553710939	-477.9817199707032	1735.135498046875	-700.4820556640626	-309.2259521484376	1800.326538085938	-761.7695312500001	-483.6391906738282	1576.551391601563	-713.8154907226564	-485.5131225585939	1270.193237304688	-701.6251831054689	-324.8522949218751	1536.908813476563	-694.8115234375001	-333.9279174804688	1586.600219726563	-850.428649902344	-186.8598937988282	1508.623046875	-970.121276855469	-158.8156433105469	1545.490234375	-949.020202636719	-116.8933258056641	1508.644653320313	-970.8782348632815	-39.51498413085938	1510.013549804688	-961.9453125000002	-34.7024269104004	1453.25146484375	-930.6066894531252	229.2616577148438	1545.591064453125	-921.6744384765627	322.6125183105469	1543.635498046875	-838.9934692382815	-359.3111572265626	1585.63720703125	-541.3039550781251	-208.1780242919922	1492.861694335938	-425.4994506835939	-182.901123046875	1530.730590820313	-446.5410461425782	-139.0672607421875	1499.539184570313	-422.2773742675782	-71.20178222656251	1489.61181640625	-426.194061279297	-61.62468338012697	1432.18212890625	-476.6004638671876	199.8379516601563	1521.79296875	-506.3988342285157	198.166976928711	1533.657470703125	-425.4477844238282	292.3900756835938	1543.42333984375	-491.4363708496095	-308.5263366699219	1093.852783203125	-853.115905761719	-288.3987121582032	1068.136352539063	-614.3024291992189	-494.475799560547	1145.548950195313	-701.5230712890626	-504.0202941894532	1115.78662109375	-731.0077514648439	-492.1969604492189	1110.8701171875	-674.7698364257814	-243.0562133789063	850.9022216796877	-932.8489379882815	-182.7880401611328	793.3084106445315	-923.4534912109377	-146.432373046875	808.4326171875002	-891.1060791015627	-183.9945678710938	732.9550781250001	-922.4323730468752	-133.6855010986328	647.2271728515626	-915.3276367187502	-132.4448699951172	630.0598144531251	-786.098083496094	-25.69560623168946	550.4008178710939	-872.7913818359377	-42.37279891967774	501.3179626464845	-939.650085449219	-8.867397308349611	509.0450439453126	-910.2683105468752	30.4876937866211	436.6679992675782	-889.3913574218752	78.19651794433595	239.4959259033204	-924.6880493164065	83.27677154541017	250.0684204101563	-832.728942871094	30.99953269958497	176.2817993164063	-883.8112792968752	235.1579132080079	247.1929321289063	-837.285339355469	244.5269622802735	258.6329650878907	-881.7781982421877	213.7965698242188	227.9062500000001	-942.848327636719	-358.1373291015626	841.7767333984377	-557.1760864257814	-311.7470703125001	794.1616821289065	-560.7768554687501	-279.4621887207032	799.7408447265627	-564.2447509765626	-326.5396118164063	713.7594604492189	-582.1054077148439	-295.3382263183594	540.8182373046876	-613.6949462890626	-262.2153320312501	543.2290649414064	-745.7629394531251	-314.2185974121094	267.6902160644532	-657.0186767578126	-280.8062438964844	259.6540832519532	-691.1791992187501	-297.9648437500001	220.1208648681641	-729.0256958007814	-369.9371643066407	118.1381988525391	-694.3430175781251	-340.5086669921876	142.8583984375	-781.8913574218752	-437.7691955566407	102.1044540405274	-757.5336914062501	-228.6997375488282	58.89305496215822	-770.6411132812502	-221.5809936523438	59.83819961547853	-718.3970947265626	-271.2364501953126	29.07355880737305	-666.3592529296876	-268.3952941894532	345.4426269531251	-717.9808349609376	222.4267578125001	1519.211547851563	-844.820495605469	
